<svg width="1024" height="1024" viewBox="0 0 1024 1024" fill="none" xmlns="http://www.w3.org/2000/svg">
  <path d="M512 52 L872 262 L152 262 Z" fill="white"/>
  <rect x="128" y="278" width="768" height="98" rx="10" fill="white"/>
  <rect x="268" y="384" width="488" height="136" rx="16" fill="white"/>
  <rect x="320" y="548" width="64" height="368" rx="32" fill="white"/>
  <rect x="432" y="548" width="64" height="368" rx="32" fill="white"/>
  <rect x="544" y="548" width="64" height="368" rx="32" fill="white"/>
  <rect x="656" y="548" width="64" height="368" rx="32" fill="white"/>
  <rect x="768" y="548" width="64" height="368" rx="32" fill="white"/>
  <rect x="240" y="932" width="544" height="50" rx="18" fill="white"/>
  <circle cx="208" cy="410" r="55" fill="none" stroke="white" stroke-width="26"/>
  <circle cx="816" cy="410" r="55" fill="none" stroke="white" stroke-width="26"/>
  <circle cx="208" cy="410" r="21" fill="none" stroke="white" stroke-width="26"/>
  <circle cx="816" cy="410" r="21" fill="none" stroke="white" stroke-width="26"/>
  <circle cx="208" cy="410" r="38" fill="white"/>
  <circle cx="816" cy="410" r="38" fill="white"/>
</svg>
